<svg width="197" height="46" viewBox="0 0 197 46" fill="none" xmlns="http://www.w3.org/2000/svg">
<path d="M31.1945 15.6328V30.527H28.2022V20.7017L23.9818 30.527H21.9275L17.7071 20.7017V30.527H14.7148V15.6328H18.578L22.977 25.927L27.3537 15.6328H31.1945Z" fill="#494AF8"/>
<path d="M44.0129 25.9937H35.2372C35.5945 27.4005 36.7333 28.2937 38.2518 28.2937C39.3906 28.2937 40.3955 27.8024 40.8644 27.0879H43.9236C43.0751 29.2985 40.8867 30.7723 38.2071 30.7723C34.7906 30.7723 32.2227 28.2937 32.2227 25.0112C32.2227 21.7286 34.7683 19.25 38.1625 19.25C41.5343 19.25 44.1023 21.7286 44.1023 25.0335C44.0799 25.3238 44.0799 25.7257 44.0129 25.9937ZM35.2819 23.9393H41.0654C40.7081 22.5995 39.5469 21.7063 38.1625 21.7063C36.7557 21.7063 35.6615 22.5995 35.2819 23.9393Z" fill="#494AF8"/>
<path d="M44.6602 27.2218H47.4961C47.4961 27.9141 48.2106 28.4723 49.1038 28.4723C49.8184 28.4723 50.533 28.0927 50.533 27.4675C50.533 26.8422 49.8407 26.418 48.4116 26.1053C46.0446 25.6141 44.8388 24.4529 44.8388 22.7112C44.8388 20.5005 46.7815 19.25 48.9699 19.25C51.4038 19.25 53.1903 20.7684 53.1903 22.6442H50.3543C50.3543 22.0636 49.7737 21.5723 48.9699 21.5723C48.2776 21.5723 47.6747 21.9743 47.6747 22.5325C47.6747 23.1131 48.3446 23.515 49.8407 23.8723C52.2301 24.4083 53.3689 25.5024 53.3689 27.2218C53.3689 29.4995 51.4038 30.7947 49.0815 30.7947C46.4912 30.7723 44.6602 29.1869 44.6602 27.2218Z" fill="#494AF8"/>
<path d="M53.9492 27.2218H56.7851C56.7851 27.9141 57.4997 28.4723 58.3929 28.4723C59.1075 28.4723 59.822 28.0927 59.822 27.4675C59.822 26.8422 59.1298 26.418 57.7007 26.1053C55.3337 25.6141 54.1279 24.4529 54.1279 22.7112C54.1279 20.5005 56.0706 19.25 58.2589 19.25C60.6929 19.25 62.4793 20.7684 62.4793 22.6442H59.6434C59.6434 22.0636 59.0628 21.5723 58.2589 21.5723C57.5667 21.5723 56.9638 21.9743 56.9638 22.5325C56.9638 23.1131 57.6337 23.515 59.1298 23.8723C61.5191 24.4083 62.658 25.5024 62.658 27.2218C62.658 29.4995 60.6929 30.7947 58.3706 30.7947C55.8026 30.7723 53.9492 29.1869 53.9492 27.2218Z" fill="#494AF8"/>
<path d="M76.2561 27.8035V30.5278H75.4523C73.8892 30.5278 72.9066 29.9472 72.4824 28.8084C71.6115 30.0365 70.294 30.7958 68.6862 30.7958C65.6047 30.7958 63.3047 28.3171 63.3047 25.0346C63.3047 21.7521 65.627 19.2734 68.6862 19.2734C70.1824 19.2734 71.4105 19.921 72.2814 20.9705V19.5191H75.095V26.888C75.095 27.4686 75.4299 27.8259 76.0328 27.8259H76.2561V27.8035ZM72.2814 25.0123C72.2814 23.2929 70.9862 21.9754 69.2222 21.9754C67.4804 21.9754 66.1853 23.2929 66.1853 25.0123C66.1853 26.7317 67.4804 28.0492 69.2222 28.0492C70.9862 28.0492 72.2814 26.7317 72.2814 25.0123Z" fill="#494AF8"/>
<path d="M88.0023 19.518V29.3432C88.0023 32.6927 85.747 34.8811 82.3305 34.8811C79.5616 34.8811 77.5519 33.4296 76.8596 31.085H79.7625C80.1868 31.8442 81.1917 32.3131 82.3305 32.3131C84.0722 32.3131 85.1887 31.1296 85.1887 29.3209V28.8073C84.3179 29.8121 83.0897 30.4374 81.6159 30.4374C78.5344 30.4374 76.2344 28.0257 76.2344 24.8325C76.2344 21.6617 78.5567 19.25 81.6159 19.25C83.0897 19.25 84.3179 19.8752 85.1887 20.8801V19.4956H88.0023V19.518ZM85.1887 24.8325C85.1887 23.1131 83.9159 21.7956 82.1519 21.7956C80.4101 21.7956 79.115 23.1131 79.115 24.8325C79.115 26.5743 80.4101 27.8917 82.1519 27.8917C83.9159 27.9141 85.1887 26.5966 85.1887 24.8325Z" fill="#494AF8"/>
<path d="M100.595 25.9937H91.8193C92.1765 27.4005 93.3154 28.2937 94.8338 28.2937C95.9726 28.2937 96.9775 27.8024 97.4464 27.0879H100.506C99.6571 29.2985 97.4688 30.7723 94.7892 30.7723C91.3726 30.7723 88.8047 28.2937 88.8047 25.0112C88.8047 21.7286 91.3503 19.25 94.7445 19.25C98.1163 19.25 100.684 21.7286 100.684 25.0335C100.684 25.3238 100.662 25.7257 100.595 25.9937ZM91.8639 23.9393H97.6474C97.2901 22.5995 96.129 21.7063 94.7445 21.7063C93.3377 21.7063 92.2435 22.5995 91.8639 23.9393Z" fill="#494AF8"/>
<path d="M118.148 15.6328V30.527H115.155V20.7017L110.935 30.527H108.881L104.66 20.7017V30.527H101.668V15.6328H105.531L109.93 25.927L114.307 15.6328H118.148Z" fill="#494AF8"/>
<path d="M119.176 25.0112C119.176 21.7286 121.721 19.25 125.116 19.25C128.487 19.25 131.055 21.7286 131.055 25.0112C131.055 28.2937 128.51 30.7723 125.116 30.7723C121.744 30.7723 119.176 28.2937 119.176 25.0112ZM128.152 25.0112C128.152 23.2917 126.88 21.9743 125.116 21.9743C123.374 21.9743 122.079 23.2917 122.079 25.0112C122.079 26.7306 123.374 28.0481 125.116 28.0481C126.857 28.0481 128.152 26.7306 128.152 25.0112Z" fill="#494AF8"/>
<path d="M150.503 27.8024V30.5267H149.699C147.6 30.5267 146.529 29.4995 146.529 27.4898V24.2073C146.529 22.8675 145.68 21.9743 144.363 21.9743C142.978 21.9743 142.04 22.8898 142.04 24.2519V30.5267H139.227V24.2073C139.227 22.8675 138.356 21.9743 137.061 21.9743C135.676 21.9743 134.716 22.8898 134.716 24.2519V30.5267H131.902V19.518H134.716V20.7908C135.52 19.7859 136.636 19.25 137.976 19.25C139.629 19.25 140.879 19.9869 141.527 21.2374C142.375 19.9422 143.648 19.25 145.278 19.25C147.712 19.25 149.32 20.8801 149.32 23.3587V26.8869C149.32 27.4675 149.677 27.8248 150.258 27.8248H150.503V27.8024Z" fill="#494AF8"/>
<path d="M162.497 25.9937H153.722C154.079 27.4005 155.218 28.2937 156.736 28.2937C157.875 28.2937 158.88 27.8024 159.349 27.0879H162.408C161.559 29.2985 159.371 30.7723 156.691 30.7723C153.275 30.7723 150.707 28.2937 150.707 25.0112C150.707 21.7286 153.253 19.25 156.647 19.25C160.019 19.25 162.587 21.7286 162.587 25.0335C162.587 25.3238 162.564 25.7257 162.497 25.9937ZM153.766 23.9393H159.55C159.192 22.5995 158.031 21.7063 156.647 21.7063C155.24 21.7063 154.146 22.5995 153.766 23.9393Z" fill="#494AF8"/>
<path d="M175.2 27.8024V30.5267H174.397C172.298 30.5267 171.226 29.4995 171.226 27.4898V24.4529C171.226 22.9568 170.265 21.9966 168.814 21.9966C167.251 21.9966 166.224 22.9791 166.224 24.4976V30.549H163.41V19.518H166.224V20.8801C167.072 19.8306 168.278 19.25 169.73 19.25C172.32 19.25 174.039 20.9248 174.039 23.515V26.8646C174.039 27.4451 174.374 27.8024 174.977 27.8024H175.2Z" fill="#494AF8"/>
<path d="M179.264 22.0862V26.5746C179.264 27.4454 179.8 27.959 180.716 27.959H181.81V30.527H180.291C177.768 30.527 176.428 29.3212 176.428 27.0435V22.0862H174.664V19.5182H175.691C176.272 19.5182 176.584 19.2056 176.584 18.625V15.6328H179.242V19.5182H181.787V22.0862H179.264Z" fill="#494AF8"/>
<path d="M14.8942 46H0V0H14.8942V3.97476H3.97476V42.0252H14.8942V46Z" fill="#494AF8"/>
<path d="M196.504 46H181.609V42.0252H192.529V3.97476H181.609V0H196.504V46Z" fill="#494AF8"/>
</svg>
