<svg width="22" height="22" viewBox="0 0 22 22" fill="none" xmlns="http://www.w3.org/2000/svg">
<path d="M11 0C13.9887 0 14.3616 0.0109999 15.5342 0.0659999C16.7057 0.121 17.5032 0.3047 18.205 0.5775C18.931 0.8569 19.5426 1.2353 20.1542 1.8458C20.7135 2.39569 21.1463 3.06085 21.4225 3.795C21.6942 4.4957 21.879 5.2943 21.934 6.4658C21.9857 7.6384 22 8.0113 22 11C22 13.9887 21.989 14.3616 21.934 15.5342C21.879 16.7057 21.6942 17.5032 21.4225 18.205C21.1471 18.9396 20.7142 19.6049 20.1542 20.1542C19.6042 20.7134 18.939 21.1461 18.205 21.4225C17.5043 21.6942 16.7057 21.879 15.5342 21.934C14.3616 21.9857 13.9887 22 11 22C8.0113 22 7.6384 21.989 6.4658 21.934C5.2943 21.879 4.4968 21.6942 3.795 21.4225C3.06056 21.1469 2.39528 20.714 1.8458 20.1542C1.28635 19.6044 0.853525 18.9392 0.5775 18.205C0.3047 17.5043 0.121 16.7057 0.0659999 15.5342C0.0142999 14.3616 0 13.9887 0 11C0 8.0113 0.0109999 7.6384 0.0659999 6.4658C0.121 5.2932 0.3047 4.4968 0.5775 3.795C0.85276 3.0604 1.28568 2.39505 1.8458 1.8458C2.39544 1.28615 3.06067 0.853302 3.795 0.5775C4.4968 0.3047 5.2932 0.121 6.4658 0.0659999C7.6384 0.0142999 8.0113 0 11 0ZM11 5.5C9.54131 5.5 8.14236 6.07946 7.11091 7.11091C6.07946 8.14236 5.5 9.54131 5.5 11C5.5 12.4587 6.07946 13.8576 7.11091 14.8891C8.14236 15.9205 9.54131 16.5 11 16.5C12.4587 16.5 13.8576 15.9205 14.8891 14.8891C15.9205 13.8576 16.5 12.4587 16.5 11C16.5 9.54131 15.9205 8.14236 14.8891 7.11091C13.8576 6.07946 12.4587 5.5 11 5.5ZM18.15 5.225C18.15 4.86033 18.0051 4.51059 17.7473 4.25273C17.4894 3.99487 17.1397 3.85 16.775 3.85C16.4103 3.85 16.0606 3.99487 15.8027 4.25273C15.5449 4.51059 15.4 4.86033 15.4 5.225C15.4 5.58967 15.5449 5.93941 15.8027 6.19727C16.0606 6.45513 16.4103 6.6 16.775 6.6C17.1397 6.6 17.4894 6.45513 17.7473 6.19727C18.0051 5.93941 18.15 5.58967 18.15 5.225ZM11 7.7C11.8752 7.7 12.7146 8.04768 13.3335 8.66655C13.9523 9.28542 14.3 10.1248 14.3 11C14.3 11.8752 13.9523 12.7146 13.3335 13.3335C12.7146 13.9523 11.8752 14.3 11 14.3C10.1248 14.3 9.28542 13.9523 8.66655 13.3335C8.04768 12.7146 7.7 11.8752 7.7 11C7.7 10.1248 8.04768 9.28542 8.66655 8.66655C9.28542 8.04768 10.1248 7.7 11 7.7Z" fill="#CCCCCC"/>
</svg>
