<svg width="23" height="23" viewBox="0 0 23 23" fill="none" xmlns="http://www.w3.org/2000/svg">
<path d="M3.83333 3.83333H9.58333V9.58333H3.83333V3.83333ZM19.1667 3.83333V9.58333H13.4167V3.83333H19.1667ZM13.4167 14.375H15.3333V12.4583H13.4167V10.5417H15.3333V12.4583H17.25V10.5417H19.1667V12.4583H17.25V14.375H19.1667V17.25H17.25V19.1667H15.3333V17.25H12.4583V19.1667H10.5417V15.3333H13.4167V14.375ZM15.3333 14.375V17.25H17.25V14.375H15.3333ZM3.83333 19.1667V13.4167H9.58333V19.1667H3.83333ZM5.75 5.75V7.66667H7.66667V5.75H5.75ZM15.3333 5.75V7.66667H17.25V5.75H15.3333ZM5.75 15.3333V17.25H7.66667V15.3333H5.75ZM3.83333 10.5417H5.75V12.4583H3.83333V10.5417ZM8.625 10.5417H12.4583V14.375H10.5417V12.4583H8.625V10.5417ZM10.5417 5.75H12.4583V9.58333H10.5417V5.75ZM1.91667 1.91667V5.75H0V1.91667C0 1.40833 0.201934 0.920823 0.561379 0.561379C0.920823 0.201934 1.40833 0 1.91667 0L5.75 0V1.91667H1.91667ZM21.0833 0C21.5917 0 22.0792 0.201934 22.4386 0.561379C22.7981 0.920823 23 1.40833 23 1.91667V5.75H21.0833V1.91667H17.25V0H21.0833ZM1.91667 17.25V21.0833H5.75V23H1.91667C1.40833 23 0.920823 22.7981 0.561379 22.4386C0.201934 22.0792 0 21.5917 0 21.0833V17.25H1.91667ZM21.0833 21.0833V17.25H23V21.0833C23 21.5917 22.7981 22.0792 22.4386 22.4386C22.0792 22.7981 21.5917 23 21.0833 23H17.25V21.0833H21.0833Z" fill="#494AF8"/>
</svg>
