<svg width="150" height="150" viewBox="0 0 150 150" fill="none" xmlns="http://www.w3.org/2000/svg">
<circle cx="75" cy="75" r="75" fill="white"/>
<circle cx="75" cy="75" r="74.5" stroke="black" stroke-opacity="0.1"/>
<path d="M60.8 79.06C59.4 79.06 58.24 78.62 57.32 77.74C56.44 76.86 56 75.8 56 74.56C56 73.28 56.44 72.2 57.32 71.32C58.24 70.44 59.4 70 60.8 70C62.2 70 63.34 70.44 64.22 71.32C65.14 72.2 65.6 73.28 65.6 74.56C65.6 75.8 65.14 76.86 64.22 77.74C63.34 78.62 62.2 79.06 60.8 79.06Z" fill="#363C4F"/>
<path d="M75.2141 79.06C73.8141 79.06 72.6541 78.62 71.7341 77.74C70.8541 76.86 70.4141 75.8 70.4141 74.56C70.4141 73.28 70.8541 72.2 71.7341 71.32C72.6541 70.44 73.8141 70 75.2141 70C76.6141 70 77.7541 70.44 78.6341 71.32C79.5541 72.2 80.0141 73.28 80.0141 74.56C80.0141 75.8 79.5541 76.86 78.6341 77.74C77.7541 78.62 76.6141 79.06 75.2141 79.06Z" fill="#363C4F"/>
<path d="M89.6281 79.06C88.2281 79.06 87.0681 78.62 86.1481 77.74C85.2681 76.86 84.8281 75.8 84.8281 74.56C84.8281 73.28 85.2681 72.2 86.1481 71.32C87.0681 70.44 88.2281 70 89.6281 70C91.0281 70 92.1681 70.44 93.0481 71.32C93.9681 72.2 94.4281 73.28 94.4281 74.56C94.4281 75.8 93.9681 76.86 93.0481 77.74C92.1681 78.62 91.0281 79.06 89.6281 79.06Z" fill="#363C4F"/>
</svg>
