<svg width="25" height="14" viewBox="0 0 25 14" fill="none" xmlns="http://www.w3.org/2000/svg">
<path d="M3.412 13.4586C3.0617 13.8054 2.58867 14 2.09571 14C1.60275 14 1.12971 13.8054 0.779407 13.4586C0.606459 13.2883 0.469113 13.0852 0.375364 12.8613C0.281616 12.6374 0.233339 12.3971 0.233339 12.1544C0.233339 11.9117 0.281616 11.6714 0.375364 11.4475C0.469112 11.2236 0.606459 11.0205 0.779407 10.8502L11.299 0.540561C11.6501 0.194195 12.1235 1.1257e-06 12.6167 1.08259e-06C13.1099 1.03947e-06 13.5832 0.194195 13.9343 0.540561L24.4539 10.8502C24.6269 11.0205 24.7642 11.2236 24.858 11.4475C24.9517 11.6714 25 11.9117 25 12.1544C25 12.3971 24.9517 12.6374 24.858 12.8613C24.7642 13.0852 24.6269 13.2883 24.4539 13.4586C24.1036 13.8054 23.6306 14 23.1376 14C22.6447 14 22.1716 13.8054 21.8213 13.4586L12.6126 5.00359L3.412 13.4586Z" fill="white"/>
</svg>
