<svg width="28" height="22" viewBox="0 0 28 22" fill="none" xmlns="http://www.w3.org/2000/svg">
<path fill-rule="evenodd" clip-rule="evenodd" d="M13.75 0C14.9256 0 16.1315 0.0302501 17.3002 0.0797501L18.6807 0.14575L20.0021 0.224125L21.2396 0.308L22.3699 0.396C23.5964 0.489882 24.7506 1.0133 25.6293 1.87418C26.5081 2.73506 27.0551 3.87824 27.1741 5.10262L27.2291 5.687L27.3323 6.93825C27.4285 8.23487 27.5 9.64837 27.5 11C27.5 12.3516 27.4285 13.7651 27.3323 15.0618L27.2291 16.313C27.2112 16.5138 27.1934 16.7076 27.1741 16.8974C27.055 18.122 26.5078 19.2653 25.6288 20.1262C24.7498 20.9871 23.5953 21.5104 22.3685 21.604L21.241 21.6906L20.0035 21.7759L18.6807 21.8542L17.3002 21.9202C16.1175 21.9716 14.9338 21.9982 13.75 22C12.5662 21.9982 11.3825 21.9716 10.1997 21.9202L8.81925 21.8542L7.49788 21.7759L6.26038 21.6906L5.13013 21.604C3.90356 21.5101 2.74938 20.9867 1.87065 20.1258C0.991916 19.2649 0.444915 18.1218 0.325875 16.8974L0.270875 16.313L0.16775 15.0618C0.0626141 13.7103 0.00666053 12.3555 0 11C0 9.64837 0.0715 8.23487 0.16775 6.93825L0.270875 5.687C0.28875 5.48625 0.306625 5.29238 0.325875 5.10262C0.444868 3.87846 0.991673 2.73545 1.87013 1.8746C2.74858 1.01375 3.90243 0.490191 5.12875 0.396L6.25763 0.308L7.49513 0.224125L8.81787 0.14575L10.1984 0.0797501C11.3816 0.0283703 12.5657 0.00178102 13.75 0ZM11 7.66562V14.3344C11 14.9696 11.6875 15.3656 12.2375 15.0494L18.0125 11.715C18.1382 11.6427 18.2425 11.5385 18.3151 11.413C18.3877 11.2874 18.4259 11.145 18.4259 11C18.4259 10.855 18.3877 10.7126 18.3151 10.587C18.2425 10.4615 18.1382 10.3573 18.0125 10.285L12.2375 6.952C12.112 6.87957 11.9697 6.84145 11.8249 6.84147C11.68 6.84149 11.5377 6.87966 11.4123 6.95213C11.2868 7.0246 11.1827 7.12883 11.1103 7.25432C11.038 7.3798 10.9999 7.52214 11 7.667V7.66562Z" fill="#CCCCCC"/>
</svg>
